# xmcd CD database file
#
# Track frame offsets:
#	150
#	23996
#	44576
#	65422
#	86502
#	104530
#	127395
#	143767
#	162462
#	179042
#	194517
#	210646
#
# Disc length: 3053 seconds
#
# Revision: 0
# Processed by: cddbd v1.5.2PL0 Copyright (c) Steve Scherf et al.
# Submitted via: CD2WAV32(JP) R3.22
#
DISCID=bd0beb0c
DTITLE=氷川きよし - 演歌名曲コレクション１３　虹色のバイヨン
DYEAR=2010
DGENRE=Oldies
TTITLE0=虹色のバイヨン
TTITLE1=離郷しぐれ
TTITLE2=ゆびきり橋
TTITLE3=寒立馬(かんだちめ)
TTITLE4=港の花　
TTITLE5=風の口笛
TTITLE6=夜がわらっている　
TTITLE7=コーヒー・ルンバ
TTITLE8=上海帰りのリル
TTITLE9=白鷺三味線
TTITLE10=カスバの女
TTITLE11=北国の春
EXTD=
EXTT0=
EXTT1=
EXTT2=
EXTT3=
EXTT4=
EXTT5=
EXTT6=
EXTT7=
EXTT8=
EXTT9=
EXTT10=
EXTT11=
PLAYORDER=
